<svg xmlns="http://www.w3.org/2000/svg" version="1.1" xmlns:xlink="http://www.w3.org/1999/xlink" xmlns:svgjs="http://svgjs.dev/svgjs" width="260" height="260"><svg id="SvgjsSvg1001" xmlns="http://www.w3.org/2000/svg" viewBox="0 0 260 260"><defs><style>.cls-1{fill:#ffef46;}.cls-2{fill:#01050b;}</style></defs><title>Solflare_favicon_260px</title><rect class="cls-1" width="260" height="260" rx="56.75"></rect><path class="cls-2" d="M178.76,110.22l-20.55-6.93,49.16-47.13-6.84-7.29L186.38,61.32l-1.1-.37-66-21.71c-18.91,6.4-44.64,25-44.64,44.1a23.13,23.13,0,0,0,.8,6.19l.43,1.52-1.38.78c-16.18,9.21-23.08,17.71-23.08,28.4,0,11.92,7.49,20.39,22.27,25.2l17.52,5.84-51.1,49,6.79,7.27,15.47-14.13,76.82,27.2c47.52-31.58,71.62-52.29,71.62-77.4C210.8,127.1,201.82,117.84,178.76,110.22ZM163.32,130.9c15.86,5.28,24,15,24.6,28.61-.17,13.45-15.74,28.57-15.74,28.57s1.31-14-1.59-23.58c-.15-.49-.35-.94-.53-1.41a18.68,18.68,0,0,0-.65-1.78l-.08.21c-3.24-6.79-10-11.29-21.59-15l-25.58-8.2,16.13-15.58ZM95.62,60l67.22,22.46L145.42,99.11l-35-11.68c-12-4-13.1-9.36-14.76-23.92l0-.67ZM85.43,126.29a31.24,31.24,0,0,1-10.08-5.41C68,114,72,102.46,79.23,97.05l0-.06c4,5.52,10.67,9.85,19.83,12.85l26.19,8.65-16.11,15.56ZM152.55,194l-.24,2.6L86.2,172.69l18-17.22,28.94,9.5C149,170.19,154.12,177.78,152.55,194Z"></path></svg><style>@media (prefers-color-scheme: light) { :root { filter: none; } }
@media (prefers-color-scheme: dark) { :root { filter: none; } }
</style></svg>